<svg width="40" height="38" xmlns="http://www.w3.org/2000/svg" xmlns:xlink="http://www.w3.org/1999/xlink" xml:space="preserve" overflow="hidden"><defs><clipPath id="clip0"><rect x="961" y="411" width="40" height="38"/></clipPath></defs><g clip-path="url(#clip0)" transform="translate(-961 -411)"><path d="M38.9969 29.1574C39.2424 29.6432 39.4374 30.1528 39.579 30.6784 39.7044 31.1519 39.7955 31.6338 39.8518 32.1204L39.8518 32.5104C39.9258 33.97 39.2497 35.3664 38.0588 36.2135 36.9306 37.0488 35.564 37.4997 34.1603 37.5L5.70641 37.5C5.016 37.4973 4.33094 37.3787 3.67981 37.1491 3.02167 36.9244 2.40394 36.5953 1.8503 36.1744 1.30081 35.7561 0.847854 35.2243 0.522242 34.6152 0.178387 33.9676 0.0041552 33.2436 0.0158004 32.5104-0.047753 31.9152 0.0323817 31.3135 0.249479 30.7558 0.456823 30.2634 0.69078 29.7306 0.951346 29.1574L15.3737 2.96215C16.6211 0.987379 18.2064 0 20.1296 0 22.0528 0 23.586 0.987379 24.7292 2.96215ZM19.9741 33.2123C20.8881 33.2607 21.7801 32.9206 22.4298 32.2759 23.0484 31.5965 23.3709 30.6988 23.3263 29.7811 23.3614 28.8883 23.0387 28.0184 22.4298 27.3645 21.7799 26.7201 20.888 26.3804 19.9741 26.429 19.0601 26.3796 18.1679 26.7195 17.5184 27.3645 16.9089 28.0181 16.5859 28.8882 16.6211 29.7811 16.5763 30.699 16.8992 31.5968 17.5184 32.2759 18.1678 32.9212 19.0599 33.2614 19.9741 33.2123ZM19.9741 9.90098C19.3116 9.89766 18.6672 10.1174 18.1446 10.5247 17.5598 11.0283 17.2546 11.7836 17.3255 12.5521 17.377 12.9164 17.455 13.514 17.5592 14.345 17.6634 15.0735 17.7546 16.0351 17.8327 17.2298 17.9109 18.4246 18.0018 20.0099 18.1055 21.9857 18.0655 22.4752 18.2868 22.9494 18.6876 23.2331 19.0419 23.4818 19.4631 23.6175 19.8959 23.6223 20.7995 23.7441 21.6306 23.1102 21.7522 22.2068 21.7621 22.1335 21.767 22.0597 21.767 21.9857L21.9225 19.1783 22.6244 12.5521C22.695 11.7838 22.3902 11.0287 21.8061 10.5247 21.2827 10.117 20.6375 9.89741 19.9741 9.90098Z" fill="#E35500" transform="matrix(1 0 0 1.01333 961.073 411)"/></g></svg>