<svg width="38" height="38" xmlns="http://www.w3.org/2000/svg" xmlns:xlink="http://www.w3.org/1999/xlink" xml:space="preserve" overflow="hidden"><defs><clipPath id="clip0"><rect x="129" y="248" width="38" height="38"/></clipPath></defs><g clip-path="url(#clip0)" transform="translate(-129 -248)"><path d="M131.375 283.625 143.25 283.625 143.25 286 131.449 286C130.803 286.017 130.177 285.777 129.708 285.332 129.238 284.891 128.98 284.269 129 283.625L129 257.5 138.5 248 155.125 248C155.769 247.98 156.39 248.236 156.832 248.705 157.268 249.151 157.508 249.752 157.5 250.375L157.5 255.125 155.125 255.125 155.125 250.375 140.875 250.375 140.875 257.5C140.896 258.144 140.639 258.765 140.17 259.207 139.724 259.643 139.123 259.883 138.5 259.875L131.375 259.875ZM165.59 263.438C165.952 263.659 166.288 263.92 166.592 264.216 166.86 264.48 167.008 264.843 167 265.219L167 279.766C167 279.966 166.975 280.165 166.926 280.359 166.875 280.512 166.813 280.661 166.74 280.805 166.664 280.956 166.549 281.084 166.406 281.176 166.294 281.241 166.164 281.267 166.035 281.25 165.709 281.239 165.385 281.189 165.07 281.101 164.904 281.069 164.75 280.992 164.625 280.879L164.625 266.555C164.633 266.179 164.485 265.816 164.217 265.553 163.923 265.266 163.585 265.027 163.215 264.847L154.828 262.399C154.687 262.342 154.535 262.316 154.382 262.324 154.176 262.327 153.972 262.378 153.789 262.472L149.856 263.438 160.84 267.149C161.202 267.37 161.538 267.631 161.842 267.928 162.11 268.191 162.258 268.554 162.25 268.93L162.25 283.403C162.254 284.382 161.463 285.18 160.483 285.184 160.478 285.184 160.473 285.184 160.469 285.184L160.097 285.184 147.035 280.285C146.641 280.188 146.29 279.966 146.034 279.652 145.762 279.332 145.617 278.923 145.625 278.504L145.625 263.734C145.613 263.009 146.059 262.355 146.738 262.101L153.418 260.097C153.609 260.024 153.809 259.974 154.012 259.949 154.088 259.945 154.164 259.958 154.234 259.987 154.28 260.011 154.331 260.024 154.382 260.024ZM148 265.441 148 278.059 159.875 282.66 159.875 269.375Z" fill="#4CC5FF"/></g></svg>