<svg width="38" height="38" xmlns="http://www.w3.org/2000/svg" xmlns:xlink="http://www.w3.org/1999/xlink" xml:space="preserve" overflow="hidden"><defs><clipPath id="clip0"><rect x="428" y="248" width="38" height="38"/></clipPath></defs><g clip-path="url(#clip0)" transform="translate(-428 -248)"><path d="M428 250.375C427.979 249.731 428.236 249.11 428.705 248.668 429.151 248.232 429.752 247.992 430.375 248L451.75 248 451.75 250.375 430.375 250.375 430.375 278.875 428 278.875ZM435.125 283.625 435.125 262.25 442.324 255.125 458.875 255.125C459.498 255.117 460.099 255.357 460.545 255.793 461.013 256.235 461.27 256.856 461.25 257.5L461.25 259.875 458.875 259.875 458.875 257.5 444.699 257.5 444.699 262.25C444.72 262.894 444.463 263.515 443.994 263.957 443.524 264.402 442.897 264.643 442.25 264.625L437.5 264.625 437.5 283.625 458.875 283.625 458.875 281.25 461.25 281.25 461.25 283.625C461.299 284.887 460.316 285.951 459.054 286 458.995 286.002 458.935 286.002 458.875 286L437.5 286C436.238 286.049 435.174 285.066 435.125 283.804 435.123 283.745 435.123 283.685 435.125 283.625ZM439.875 272.938C439.866 272.612 440.002 272.299 440.246 272.084 440.466 271.873 440.758 271.753 441.062 271.75L450.488 271.75C451.063 271.669 451.594 272.068 451.676 272.643 451.689 272.741 451.689 272.84 451.676 272.938 451.673 273.242 451.553 273.535 451.341 273.754 451.127 273.998 450.814 274.135 450.488 274.125L441.062 274.125C440.426 274.081 439.919 273.574 439.875 272.938ZM441.062 276.5 450.488 276.5C451.063 276.419 451.594 276.818 451.676 277.393 451.689 277.491 451.689 277.59 451.676 277.688 451.673 277.992 451.553 278.285 451.341 278.504 451.127 278.748 450.814 278.885 450.488 278.875L441.062 278.875C440.426 278.831 439.919 278.324 439.875 277.688 439.866 277.362 440.002 277.049 440.246 276.834 440.466 276.623 440.758 276.503 441.062 276.5ZM455.535 273.086 457.91 272.789C458.003 273.44 458.35 274.027 458.875 274.422 459.073 274.604 459.299 274.755 459.543 274.868L459.543 271.008 458.875 270.785C458.064 270.472 457.321 270.006 456.685 269.412 456.106 268.719 455.826 267.825 455.906 266.926 455.886 266.097 456.148 265.286 456.649 264.625 457.216 263.937 458.002 263.466 458.875 263.289 458.987 263.288 459.099 263.276 459.209 263.252 459.319 263.229 459.431 263.217 459.543 263.215L459.543 262.25 460.879 262.25 460.879 263.215C461.007 263.198 461.138 263.225 461.25 263.289 462.976 263.371 464.389 264.69 464.59 266.406L462.289 266.703C462.097 266.176 461.73 265.731 461.25 265.441 461.183 265.413 461.121 265.376 461.065 265.33 461.007 265.286 460.945 265.249 460.879 265.219L460.879 268.781C460.936 268.816 460.999 268.841 461.065 268.856 461.13 268.871 461.192 268.896 461.25 268.93 462.307 269.182 463.295 269.663 464.144 270.34 464.691 271.038 464.979 271.903 464.961 272.789 465.018 273.755 464.714 274.708 464.107 275.461 463.324 276.216 462.326 276.709 461.25 276.871 461.186 276.863 461.121 276.876 461.065 276.909 461.009 276.941 460.943 276.954 460.879 276.946L460.879 278.504 459.543 278.504 459.543 277.019C459.318 277.046 459.089 277.021 458.875 276.946 457.99 276.752 457.202 276.252 456.649 275.535 456.071 274.829 455.688 273.985 455.535 273.086ZM458.132 266.778C458.129 267.005 458.167 267.232 458.244 267.446 458.383 267.709 458.606 267.918 458.877 268.039 458.957 268.127 459.06 268.192 459.174 268.225 459.307 268.267 459.432 268.329 459.546 268.41L459.546 265.219C459.298 265.246 459.064 265.35 458.877 265.516 458.624 265.667 458.418 265.886 458.284 266.149 458.19 266.346 458.138 266.56 458.132 266.778ZM461.25 274.941C461.657 274.878 462.027 274.666 462.289 274.347 462.564 274.012 462.721 273.594 462.734 273.16 462.752 272.836 462.675 272.514 462.512 272.233 462.162 271.888 461.726 271.645 461.25 271.528 461.192 271.494 461.13 271.469 461.065 271.453 460.999 271.438 460.936 271.413 460.879 271.379L460.879 275.016C460.943 275.025 461.009 275.011 461.065 274.978 461.121 274.946 461.186 274.933 461.25 274.941Z" fill="#4CC5FF"/></g></svg>