<svg width="28" height="38" xmlns="http://www.w3.org/2000/svg" xmlns:xlink="http://www.w3.org/1999/xlink" xml:space="preserve" overflow="hidden"><defs><clipPath id="clip0"><rect x="971" y="248" width="28" height="38"/></clipPath></defs><g clip-path="url(#clip0)" transform="translate(-971 -248)"><path d="M25.6667 0C26.9067-0.0486339 27.9514 0.917187 28 2.15721 28.0023 2.2159 28.0023 2.27465 28 2.33333L28 35C28.0079 35.6123 27.7716 36.2025 27.3436 36.6403 26.9092 37.1002 26.2989 37.3524 25.6667 37.3333L2.33333 37.3333C1.71432 37.3388 1.12063 37.0879 0.693 36.6403 0.245175 36.2129-0.00568953 35.619-2.11398e-08 35L0 2.33333C-0.0204388 1.70081 0.231984 1.09 0.693 0.656444 1.13042 0.227738 1.72092-0.00857049 2.33333-1.40932e-08ZM25.6667 2.33333 2.33333 2.33333 2.33333 35 25.6667 35ZM7.94811 12.0314 5.25 9.47956 6.56289 8.09356 7.94811 9.33333 11.8852 5.32311 13.1981 6.70833ZM7.94811 21.3648 5.25 18.6667 6.56289 17.3538 7.94811 18.5936 11.8852 14.5833 13.1981 15.9686ZM11.0833 32.6667C10.5482 32.6667 10.2814 32.4248 10.2814 31.9371 10.3699 30.9826 10.6422 30.0543 11.0833 29.2032 11.5419 28.1335 12.1563 27.1375 12.9064 26.2477 13.2257 25.8823 13.6434 25.6166 14.1097 25.4823 14.4254 25.4003 14.7614 25.4683 15.0204 25.6667 15.2581 25.855 15.4356 26.1085 15.5314 26.3962 15.6266 26.6773 15.6515 26.9775 15.6038 27.2704 15.6038 27.4167 15.5906 27.5987 15.568 27.8149 15.5424 28.0447 15.5302 28.2759 15.5314 28.5071 15.5305 28.6054 15.5183 28.7033 15.4949 28.7988 15.4706 28.8941 15.4583 28.9921 15.4583 29.0904L15.4583 29.3821 15.6769 29.1636C16.0484 28.6982 16.4781 28.2826 16.9556 27.9269 17.4587 27.5091 18.0904 27.2773 18.7444 27.2704 19.1871 27.2848 19.6269 27.346 20.0566 27.4532 20.5825 27.5729 21.0954 27.7438 21.588 27.9634 22.0224 28.1544 22.4376 28.3865 22.8278 28.6564 23.1669 28.8999 23.338 29.1184 23.338 29.3129 23.338 29.8962 23.0689 30.1871 22.5361 30.1871 22.2478 30.1788 21.9635 30.1171 21.6977 30.0051 21.3803 29.8846 21.0412 29.7383 20.6764 29.568 20.3117 29.3977 19.9586 29.253 19.6194 29.1301 19.3398 29.0217 19.0441 28.9602 18.7444 28.9481 18.6939 28.9481 18.5484 29.0827 18.3066 29.3487 18.0177 29.6574 17.7003 29.9382 17.3584 30.1871 16.9503 30.492 16.5244 30.7722 16.0829 31.0263 15.677 31.2776 15.2115 31.4158 14.7342 31.4269 14.4418 31.3312 14.2714 31.2332 14.2232 31.1352L13.9316 30.9167C13.8539 30.6659 13.793 30.4103 13.7496 30.1513 13.7226 29.9451 13.7104 29.7371 13.713 29.5291 13.7132 29.2238 13.7377 28.919 13.7861 28.6176 13.8329 28.3159 13.857 28.0112 13.8584 27.706L13.713 27.9246C13.2425 28.4958 12.8615 29.1352 12.5829 29.8208 12.3937 30.3087 12.2352 30.8079 12.1084 31.3157 12.0366 31.6549 11.9268 31.9849 11.781 32.2996 11.646 32.5537 11.3692 32.6993 11.0833 32.6667ZM22.1667 7C22.731 6.92005 23.2534 7.31277 23.3333 7.87718 23.3469 7.97316 23.3469 8.07061 23.3333 8.16667 23.3302 8.46603 23.2128 8.75288 23.0051 8.96856 22.7939 9.20897 22.4866 9.34274 22.1667 9.33333L17.5 9.33333C16.8743 9.29048 16.3762 8.79239 16.3333 8.16667 16.3239 7.84677 16.4577 7.53941 16.6981 7.32822 16.9136 7.12028 17.2006 7.00281 17.5 7ZM22.1667 16.3333C22.731 16.2534 23.2534 16.6461 23.3333 17.2105 23.3469 17.3065 23.3469 17.4039 23.3333 17.5 23.3302 17.7994 23.2128 18.0862 23.0051 18.3019 22.7939 18.5423 22.4866 18.6761 22.1667 18.6667L17.5 18.6667C16.8743 18.6238 16.3762 18.1257 16.3333 17.5 16.3239 17.1801 16.4577 16.8727 16.6981 16.6616 16.9136 16.4536 17.2006 16.3361 17.5 16.3333Z" fill="#4CC5FF" transform="matrix(1 0 0 1.01786 971 248)"/></g></svg>